<mxfile host="app.diagrams.net" agent="Mozilla/5.0 (iPad; CPU OS 18_6_2 like Mac OS X) AppleWebKit/605.1.15 (KHTML, like Gecko) Version/18.6 Mobile/15E148 Safari/604.1" version="28.2.2">
  <diagram name="Page-1" id="QOVa1o7NW0OlATdDbtiz">
    <mxGraphModel dx="1861" dy="1419" grid="1" gridSize="10" guides="1" tooltips="1" connect="1" arrows="1" fold="1" page="1" pageScale="1" pageWidth="850" pageHeight="1100" math="0" shadow="0">
      <root>
        <mxCell id="0" />
        <mxCell id="1" parent="0" />
        <mxCell id="NTBBdyBc5qvuKP7fLPiz-8" style="edgeStyle=none;curved=1;rounded=0;orthogonalLoop=1;jettySize=auto;html=1;entryX=0.25;entryY=0;entryDx=0;entryDy=0;fontSize=12;startSize=8;endSize=8;" edge="1" parent="1" source="NTBBdyBc5qvuKP7fLPiz-1" target="NTBBdyBc5qvuKP7fLPiz-4">
          <mxGeometry relative="1" as="geometry" />
        </mxCell>
        <mxCell id="NTBBdyBc5qvuKP7fLPiz-11" value="Long Email" style="edgeLabel;html=1;align=center;verticalAlign=middle;resizable=0;points=[];fontSize=12;" vertex="1" connectable="0" parent="NTBBdyBc5qvuKP7fLPiz-8">
          <mxGeometry x="0.0454" y="8" relative="1" as="geometry">
            <mxPoint x="-1" as="offset" />
          </mxGeometry>
        </mxCell>
        <mxCell id="NTBBdyBc5qvuKP7fLPiz-12" style="edgeStyle=none;curved=1;rounded=0;orthogonalLoop=1;jettySize=auto;html=1;entryX=0.75;entryY=0;entryDx=0;entryDy=0;fontSize=12;startSize=8;endSize=8;" edge="1" parent="1" source="NTBBdyBc5qvuKP7fLPiz-1" target="NTBBdyBc5qvuKP7fLPiz-3">
          <mxGeometry relative="1" as="geometry" />
        </mxCell>
        <mxCell id="NTBBdyBc5qvuKP7fLPiz-13" value="Tasks" style="edgeLabel;html=1;align=center;verticalAlign=middle;resizable=0;points=[];fontSize=12;" vertex="1" connectable="0" parent="NTBBdyBc5qvuKP7fLPiz-12">
          <mxGeometry x="-0.2955" y="5" relative="1" as="geometry">
            <mxPoint y="-1" as="offset" />
          </mxGeometry>
        </mxCell>
        <mxCell id="NTBBdyBc5qvuKP7fLPiz-14" style="edgeStyle=none;curved=1;rounded=0;orthogonalLoop=1;jettySize=auto;html=1;entryX=0.25;entryY=0;entryDx=0;entryDy=0;fontSize=12;startSize=8;endSize=8;" edge="1" parent="1" source="NTBBdyBc5qvuKP7fLPiz-1" target="NTBBdyBc5qvuKP7fLPiz-5">
          <mxGeometry relative="1" as="geometry" />
        </mxCell>
        <mxCell id="NTBBdyBc5qvuKP7fLPiz-15" value="Appointments" style="edgeLabel;html=1;align=center;verticalAlign=middle;resizable=0;points=[];fontSize=12;" vertex="1" connectable="0" parent="NTBBdyBc5qvuKP7fLPiz-14">
          <mxGeometry x="0.3532" relative="1" as="geometry">
            <mxPoint x="1" as="offset" />
          </mxGeometry>
        </mxCell>
        <mxCell id="NTBBdyBc5qvuKP7fLPiz-1" value="Email" style="rounded=0;whiteSpace=wrap;html=1;" vertex="1" parent="1">
          <mxGeometry x="250" y="320" width="160" height="80" as="geometry" />
        </mxCell>
        <mxCell id="NTBBdyBc5qvuKP7fLPiz-28" style="edgeStyle=none;curved=1;rounded=0;orthogonalLoop=1;jettySize=auto;html=1;exitX=0;exitY=1;exitDx=0;exitDy=0;fontSize=12;startSize=8;endSize=8;entryX=0.88;entryY=0.25;entryDx=0;entryDy=0;entryPerimeter=0;" edge="1" parent="1" source="NTBBdyBc5qvuKP7fLPiz-2" target="NTBBdyBc5qvuKP7fLPiz-27">
          <mxGeometry relative="1" as="geometry">
            <mxPoint x="-180" y="960" as="targetPoint" />
          </mxGeometry>
        </mxCell>
        <mxCell id="NTBBdyBc5qvuKP7fLPiz-29" value="Publish" style="edgeLabel;html=1;align=center;verticalAlign=middle;resizable=0;points=[];fontSize=12;" vertex="1" connectable="0" parent="NTBBdyBc5qvuKP7fLPiz-28">
          <mxGeometry x="-0.3465" y="5" relative="1" as="geometry">
            <mxPoint as="offset" />
          </mxGeometry>
        </mxCell>
        <mxCell id="NTBBdyBc5qvuKP7fLPiz-2" value="AFFiNE" style="rounded=0;whiteSpace=wrap;html=1;" vertex="1" parent="1">
          <mxGeometry x="-100" y="790" width="160" height="80" as="geometry" />
        </mxCell>
        <mxCell id="NTBBdyBc5qvuKP7fLPiz-19" value="" style="edgeStyle=none;curved=1;rounded=0;orthogonalLoop=1;jettySize=auto;html=1;entryX=0.5;entryY=1;entryDx=0;entryDy=0;fontSize=12;startSize=8;endSize=8;exitX=0.5;exitY=1;exitDx=0;exitDy=0;" edge="1" parent="1" source="NTBBdyBc5qvuKP7fLPiz-3" target="NTBBdyBc5qvuKP7fLPiz-2">
          <mxGeometry y="10" relative="1" as="geometry">
            <Array as="points">
              <mxPoint x="140" y="1060" />
            </Array>
            <mxPoint x="7" y="3" as="offset" />
          </mxGeometry>
        </mxCell>
        <mxCell id="NTBBdyBc5qvuKP7fLPiz-21" value="After Action" style="edgeLabel;html=1;align=center;verticalAlign=middle;resizable=0;points=[];fontSize=12;" vertex="1" connectable="0" parent="NTBBdyBc5qvuKP7fLPiz-19">
          <mxGeometry x="0.6623" y="-16" relative="1" as="geometry">
            <mxPoint as="offset" />
          </mxGeometry>
        </mxCell>
        <mxCell id="NTBBdyBc5qvuKP7fLPiz-3" value="Trello" style="rounded=0;whiteSpace=wrap;html=1;" vertex="1" parent="1">
          <mxGeometry x="200" y="790" width="160" height="80" as="geometry" />
        </mxCell>
        <mxCell id="NTBBdyBc5qvuKP7fLPiz-9" value="Action Needed" style="edgeStyle=none;curved=1;rounded=0;orthogonalLoop=1;jettySize=auto;html=1;entryX=0.25;entryY=0;entryDx=0;entryDy=0;fontSize=12;startSize=8;endSize=8;" edge="1" parent="1" source="NTBBdyBc5qvuKP7fLPiz-4" target="NTBBdyBc5qvuKP7fLPiz-3">
          <mxGeometry relative="1" as="geometry">
            <Array as="points" />
          </mxGeometry>
        </mxCell>
        <mxCell id="NTBBdyBc5qvuKP7fLPiz-18" value="Notes" style="edgeStyle=none;curved=1;rounded=0;orthogonalLoop=1;jettySize=auto;html=1;exitX=0;exitY=1;exitDx=0;exitDy=0;entryX=1;entryY=0;entryDx=0;entryDy=0;fontSize=12;startSize=8;endSize=8;" edge="1" parent="1" source="NTBBdyBc5qvuKP7fLPiz-4" target="NTBBdyBc5qvuKP7fLPiz-2">
          <mxGeometry relative="1" as="geometry" />
        </mxCell>
        <mxCell id="NTBBdyBc5qvuKP7fLPiz-4" value="Instapaper" style="rounded=0;whiteSpace=wrap;html=1;" vertex="1" parent="1">
          <mxGeometry x="140" y="550" width="160" height="80" as="geometry" />
        </mxCell>
        <mxCell id="NTBBdyBc5qvuKP7fLPiz-16" style="edgeStyle=none;curved=1;rounded=0;orthogonalLoop=1;jettySize=auto;html=1;entryX=1;entryY=0;entryDx=0;entryDy=0;fontSize=12;startSize=8;endSize=8;" edge="1" parent="1" source="NTBBdyBc5qvuKP7fLPiz-5" target="NTBBdyBc5qvuKP7fLPiz-3">
          <mxGeometry relative="1" as="geometry" />
        </mxCell>
        <mxCell id="NTBBdyBc5qvuKP7fLPiz-17" value="Reminders" style="edgeLabel;html=1;align=center;verticalAlign=middle;resizable=0;points=[];fontSize=12;" vertex="1" connectable="0" parent="NTBBdyBc5qvuKP7fLPiz-16">
          <mxGeometry x="-0.2448" y="13" relative="1" as="geometry">
            <mxPoint y="-1" as="offset" />
          </mxGeometry>
        </mxCell>
        <mxCell id="NTBBdyBc5qvuKP7fLPiz-5" value="Calendar" style="rounded=0;whiteSpace=wrap;html=1;" vertex="1" parent="1">
          <mxGeometry x="460" y="560" width="160" height="80" as="geometry" />
        </mxCell>
        <mxCell id="NTBBdyBc5qvuKP7fLPiz-7" style="edgeStyle=none;curved=1;rounded=0;orthogonalLoop=1;jettySize=auto;html=1;entryX=0;entryY=0;entryDx=0;entryDy=0;fontSize=12;startSize=8;endSize=8;exitX=1;exitY=0.75;exitDx=0;exitDy=0;" edge="1" parent="1" source="NTBBdyBc5qvuKP7fLPiz-6" target="NTBBdyBc5qvuKP7fLPiz-4">
          <mxGeometry relative="1" as="geometry">
            <Array as="points">
              <mxPoint x="120" y="520" />
            </Array>
          </mxGeometry>
        </mxCell>
        <mxCell id="NTBBdyBc5qvuKP7fLPiz-6" value="Articles" style="shape=document;whiteSpace=wrap;html=1;boundedLbl=1;size=0.25;" vertex="1" parent="1">
          <mxGeometry x="-70" y="320" width="120" height="80" as="geometry" />
        </mxCell>
        <mxCell id="NTBBdyBc5qvuKP7fLPiz-23" style="edgeStyle=none;curved=1;rounded=0;orthogonalLoop=1;jettySize=auto;html=1;entryX=0.5;entryY=0;entryDx=0;entryDy=0;fontSize=12;startSize=8;endSize=8;" edge="1" parent="1" source="NTBBdyBc5qvuKP7fLPiz-22" target="NTBBdyBc5qvuKP7fLPiz-2">
          <mxGeometry relative="1" as="geometry" />
        </mxCell>
        <mxCell id="NTBBdyBc5qvuKP7fLPiz-22" value="How Tos" style="shape=document;whiteSpace=wrap;html=1;boundedLbl=1;" vertex="1" parent="1">
          <mxGeometry x="-230" y="320" width="120" height="80" as="geometry" />
        </mxCell>
        <mxCell id="NTBBdyBc5qvuKP7fLPiz-26" style="edgeStyle=none;curved=1;rounded=0;orthogonalLoop=1;jettySize=auto;html=1;entryX=0;entryY=0.25;entryDx=0;entryDy=0;fontSize=12;startSize=8;endSize=8;" edge="1" parent="1" source="NTBBdyBc5qvuKP7fLPiz-25" target="NTBBdyBc5qvuKP7fLPiz-2">
          <mxGeometry relative="1" as="geometry" />
        </mxCell>
        <mxCell id="NTBBdyBc5qvuKP7fLPiz-25" value="GitHub Repos" style="shape=process;whiteSpace=wrap;html=1;backgroundOutline=1;" vertex="1" parent="1">
          <mxGeometry x="-380" y="330" width="120" height="60" as="geometry" />
        </mxCell>
        <mxCell id="NTBBdyBc5qvuKP7fLPiz-27" value="Blog" style="ellipse;shape=cloud;whiteSpace=wrap;html=1;" vertex="1" parent="1">
          <mxGeometry x="-390" y="930" width="120" height="80" as="geometry" />
        </mxCell>
      </root>
    </mxGraphModel>
  </diagram>
</mxfile>
